<svg version="1.1" xmlns="http://www.w3.org/2000/svg" xmlns:xlink="http://www.w3.org/1999/xlink" width="110" height="110" viewBox="0,0,256,256"><g fill="#5026a8" fill-rule="nonzero" stroke="none" stroke-width="1" stroke-linecap="butt" stroke-linejoin="miter" stroke-miterlimit="10" stroke-dasharray="" stroke-dashoffset="0" font-family="none" font-weight="none" font-size="none" text-anchor="none" style="mix-blend-mode: normal"><g transform="translate(-1.16145,-1.16221) scale(2.32727,2.32727)"><path d="M91.1671,82.3309c2.4414,2.4414 2.4414,6.3984 0,8.8359c-1.2188,1.2227 -2.8203,1.832 -4.418,1.832c-1.5977,0 -3.1992,-0.6093 -4.418,-1.832l-26.832,-26.8319l-26.8321,26.8319c-1.2188,1.2227 -2.8202,1.832 -4.4179,1.832c-1.5977,0 -3.1993,-0.6093 -4.418,-1.832c-2.4415,-2.4414 -2.4415,-6.3984 0,-8.8359l26.832,-26.8319l-26.832,-26.8321c-2.4415,-2.4414 -2.4415,-6.3983 0,-8.8358c2.4414,-2.4415 6.3984,-2.4415 8.8359,0l26.832,26.832l26.832,-26.832c2.4414,-2.4415 6.3984,-2.4415 8.8359,0c2.4414,2.4414 2.4414,6.3983 0,8.8358l-26.832,26.8321z"></path></g></g></svg>